<?xml version="1.0" encoding="UTF-8"?>
<svg xmlns="http://www.w3.org/2000/svg" xmlns:xlink="http://www.w3.org/1999/xlink" width="40pt" height="40pt" viewBox="0 0 40 40" version="1.1">
<g id="surface20149169">
<path style=" stroke:none;fill-rule:nonzero;fill:rgb(0.784314%,74.117649%,83.529413%);fill-opacity:1;" d="M 8.230469 11.261719 C 6.53125 11.261719 4.804688 11.925781 4.515625 12.289062 C 4.441406 12.4375 4.269531 13.648438 4.679688 13.648438 C 4.816406 13.648438 4.878906 13.671875 5.28125 13.484375 C 6.78125 12.898438 7.730469 12.914062 7.867188 12.914062 C 9.554688 12.75 10.53125 13.902344 10.382812 15.386719 L 10.382812 16.261719 C 8.957031 15.925781 8.140625 15.914062 7.742188 15.914062 C 5.667969 15.789062 3.75 16.882812 3.75 19.285156 C 3.75 21.925781 6.105469 22.488281 7.015625 22.453125 C 8.378906 22.464844 9.679688 21.851562 10.542969 20.789062 C 11.230469 22.324219 11.667969 22.222656 11.679688 22.222656 C 11.804688 22.222656 11.90625 22.175781 12.003906 22.113281 L 12.71875 21.609375 C 12.84375 21.535156 12.941406 21.414062 12.953125 21.261719 C 12.941406 20.898438 12.292969 20.335938 12.339844 19.074219 L 12.339844 15.175781 C 12.417969 14.101562 12.066406 13.046875 11.34375 12.234375 C 10.480469 11.511719 9.34375 11.164062 8.230469 11.261719 Z M 32.445312 11.261719 C 29.945312 11.261719 28.511719 12.824219 28.546875 14.410156 C 28.546875 16.585938 30.746094 17.277344 30.996094 17.351562 C 33.109375 18.011719 33.398438 18.039062 33.984375 18.539062 C 34.484375 19.050781 34.421875 20.050781 33.683594 20.488281 C 33.472656 20.613281 32.558594 21.164062 30.496094 20.738281 C 29.808594 20.601562 29.445312 20.4375 28.882812 20.199219 C 28.734375 20.148438 28.382812 20.0625 28.382812 20.523438 L 28.382812 21.136719 C 28.382812 21.425781 28.558594 21.6875 28.820312 21.8125 C 30.132812 22.472656 31.707031 22.5 32.046875 22.5 C 32.097656 22.5 34.96875 22.5 35.933594 20.5625 C 36.132812 20.160156 36.644531 18.699219 35.683594 17.453125 C 34.882812 16.515625 34.195312 16.414062 32.144531 15.789062 C 31.972656 15.738281 30.457031 15.347656 30.472656 14.289062 C 30.394531 12.925781 32.246094 12.851562 32.632812 12.875 C 34.195312 12.851562 34.96875 13.4375 35.394531 13.472656 C 35.582031 13.472656 35.671875 13.363281 35.671875 13.113281 L 35.671875 12.535156 C 35.683594 12.398438 35.632812 12.261719 35.558594 12.152344 C 35.058594 11.5 33.144531 11.261719 32.445312 11.261719 Z M 13.472656 11.574219 C 13.335938 11.601562 13.234375 11.738281 13.257812 11.875 C 13.285156 12.039062 13.308594 12.199219 13.371094 12.363281 L 16.171875 21.597656 C 16.234375 21.898438 16.433594 22.226562 16.871094 22.175781 L 17.894531 22.175781 C 18.519531 22.238281 18.609375 21.636719 18.621094 21.574219 L 20.457031 13.875 L 22.320312 21.585938 C 22.335938 21.648438 22.421875 22.25 23.035156 22.1875 L 24.070312 22.1875 C 24.523438 22.238281 24.734375 21.910156 24.796875 21.609375 C 27.949219 11.472656 27.734375 12.164062 27.757812 12.0625 C 27.808594 11.539062 27.507812 11.574219 27.457031 11.585938 L 26.34375 11.585938 C 25.78125 11.523438 25.671875 12.039062 25.648438 12.164062 L 23.570312 20.175781 L 21.695312 12.164062 C 21.609375 11.550781 21.109375 11.574219 20.984375 11.585938 L 20.023438 11.585938 C 19.472656 11.535156 19.335938 11.976562 19.296875 12.164062 L 17.433594 20.0625 L 15.433594 12.164062 C 15.382812 11.914062 15.222656 11.523438 14.734375 11.574219 Z M 8.15625 17.363281 C 9.054688 17.375 9.832031 17.511719 10.367188 17.636719 C 10.367188 18.261719 10.390625 18.613281 10.253906 19.175781 C 10.078125 19.773438 9.304688 20.863281 7.480469 20.890625 C 6.429688 20.9375 5.742188 20.113281 5.804688 19.175781 C 5.742188 17.675781 7.292969 17.300781 8.15625 17.363281 Z M 36.300781 25.003906 C 35.132812 25.019531 33.757812 25.28125 32.710938 26.011719 C 32.390625 26.238281 32.445312 26.546875 32.804688 26.507812 C 33.980469 26.363281 36.59375 26.046875 37.0625 26.644531 C 37.53125 27.242188 36.542969 29.707031 36.109375 30.808594 C 35.972656 31.140625 36.257812 31.273438 36.558594 31.023438 C 38.515625 29.386719 39.023438 25.957031 38.621094 25.460938 C 38.421875 25.214844 37.46875 24.984375 36.300781 25.003906 Z M 1.519531 26.253906 C 1.25 26.289062 1.132812 26.636719 1.414062 26.910156 C 6.3125 31.5 12.78125 33.75 19.964844 33.75 C 25.089844 33.75 31.039062 32.078125 35.144531 28.929688 C 35.824219 28.40625 35.246094 27.621094 34.546875 27.929688 C 29.945312 29.960938 24.945312 30.941406 20.394531 30.941406 C 13.648438 30.941406 7.117188 29.53125 1.835938 26.332031 C 1.71875 26.261719 1.613281 26.238281 1.519531 26.253906 Z M 1.519531 26.253906 "/>
</g>
</svg>
