<?xml version="1.0" encoding="UTF-8"?>
<svg xmlns="http://www.w3.org/2000/svg" xmlns:xlink="http://www.w3.org/1999/xlink" width="45pt" height="45pt" viewBox="0 0 45 45" version="1.1">
<g id="surface20123274">
<path style=" stroke:none;fill-rule:nonzero;fill:rgb(0.784314%,74.117649%,83.529413%);fill-opacity:1;" d="M 39.519531 10.804688 L 24.363281 2.285156 C 23.214844 1.640625 21.785156 1.640625 20.636719 2.285156 L 5.480469 10.804688 C 4.320312 11.453125 3.601562 12.675781 3.601562 13.980469 L 3.601562 31.019531 C 3.601562 32.328125 4.320312 33.546875 5.480469 34.195312 L 20.636719 42.714844 C 21.214844 43.039062 21.855469 43.199219 22.5 43.199219 C 23.144531 43.199219 23.785156 43.039062 24.363281 42.714844 L 39.519531 34.195312 C 40.679688 33.546875 41.398438 32.328125 41.398438 31.019531 L 41.398438 13.980469 C 41.398438 12.675781 40.679688 11.453125 39.519531 10.804688 Z M 22.5 33.300781 C 16.542969 33.300781 11.699219 28.457031 11.699219 22.5 C 11.699219 16.542969 16.542969 11.699219 22.5 11.699219 C 25.902344 11.699219 29.046875 13.277344 31.089844 15.96875 L 27.144531 18.25 C 25.960938 16.953125 24.273438 16.199219 22.5 16.199219 C 19.027344 16.199219 16.199219 19.027344 16.199219 22.5 C 16.199219 25.972656 19.027344 28.800781 22.5 28.800781 C 24.273438 28.800781 25.960938 28.046875 27.144531 26.75 L 31.089844 29.03125 C 29.046875 31.722656 25.902344 33.300781 22.5 33.300781 Z M 33.300781 23.398438 L 31.5 23.398438 L 31.5 25.199219 L 29.699219 25.199219 L 29.699219 23.398438 L 27.898438 23.398438 L 27.898438 21.601562 L 29.699219 21.601562 L 29.699219 19.800781 L 31.5 19.800781 L 31.5 21.601562 L 33.300781 21.601562 Z M 39.601562 23.398438 L 37.800781 23.398438 L 37.800781 25.199219 L 36 25.199219 L 36 23.398438 L 34.199219 23.398438 L 34.199219 21.601562 L 36 21.601562 L 36 19.800781 L 37.800781 19.800781 L 37.800781 21.601562 L 39.601562 21.601562 Z M 39.601562 23.398438 "/>
</g>
</svg>
