<?xml version="1.0" encoding="UTF-8"?>
<svg xmlns="http://www.w3.org/2000/svg" xmlns:xlink="http://www.w3.org/1999/xlink" width="40pt" height="40pt" viewBox="0 0 40 40" version="1.1">
<g id="surface20128250">
<path style=" stroke:none;fill-rule:nonzero;fill:rgb(0.784314%,74.117649%,83.529413%);fill-opacity:1;" d="M 22.550781 -0.00390625 C 24.75 5.085938 14.65625 8.230469 13.722656 12.476562 C 12.859375 16.367188 19.710938 20.898438 19.714844 20.898438 C 18.675781 19.285156 17.921875 17.953125 16.878906 15.445312 C 15.113281 11.199219 27.625 7.363281 22.550781 -0.00390625 Z M 29.242188 7.050781 C 29.242188 7.050781 20.402344 7.609375 19.953125 13.265625 C 19.753906 15.785156 22.273438 17.128906 22.351562 18.960938 C 22.40625 20.457031 20.839844 21.703125 20.839844 21.703125 C 20.839844 21.703125 23.679688 21.167969 24.570312 18.882812 C 25.554688 16.351562 22.664062 14.617188 22.953125 12.589844 C 23.234375 10.648438 29.242188 7.050781 29.242188 7.050781 Z M 31.382812 20.117188 C 30.460938 20.074219 29.429688 20.382812 28.5 21.050781 C 30.324219 20.660156 31.867188 21.773438 31.867188 23.0625 C 31.867188 25.960938 27.679688 28.703125 27.679688 28.703125 C 27.679688 28.703125 34.164062 27.960938 34.164062 23.199219 C 34.164062 21.230469 32.921875 20.1875 31.382812 20.117188 Z M 15.347656 20.121094 C 15.347656 20.121094 7.25 20.011719 7.25 22.304688 C 7.25 24.695312 17.851562 24.867188 25.425781 23.390625 C 25.425781 23.390625 27.445312 22.007812 27.984375 21.492188 C 23.023438 22.503906 11.695312 22.636719 11.695312 21.761719 C 11.695312 20.953125 15.347656 20.121094 15.347656 20.121094 Z M 13.390625 24.578125 C 12.148438 24.578125 10.296875 25.539062 10.296875 26.460938 C 10.296875 28.320312 19.648438 29.757812 26.574219 27.039062 L 24.179688 25.570312 C 19.484375 27.070312 10.832031 26.589844 13.390625 24.578125 Z M 14.542969 28.738281 C 12.839844 28.738281 11.738281 29.789062 11.738281 30.5625 C 11.738281 32.949219 21.902344 33.191406 25.929688 30.761719 L 23.371094 29.132812 C 20.363281 30.40625 12.804688 30.578125 14.542969 28.738281 Z M 8.871094 30.898438 C 6.097656 30.84375 4.292969 32.089844 4.292969 33.125 C 4.289062 38.625 32.710938 38.359375 32.710938 32.738281 C 32.710938 31.804688 31.613281 31.363281 31.214844 31.148438 C 33.539062 36.523438 7.976562 36.109375 7.976562 32.9375 C 7.976562 32.214844 9.851562 31.507812 11.59375 31.847656 L 10.117188 31.007812 C 9.679688 30.941406 9.265625 30.90625 8.871094 30.898438 Z M 35.710938 34.601562 C 31.386719 38.695312 20.4375 40.1875 9.425781 37.660156 C 20.433594 42.164062 35.652344 39.628906 35.710938 34.601562 Z M 35.710938 34.601562 "/>
</g>
</svg>
