<?xml version="1.0" encoding="UTF-8"?>
<svg xmlns="http://www.w3.org/2000/svg" xmlns:xlink="http://www.w3.org/1999/xlink" width="40pt" height="40pt" viewBox="0 0 40 40" version="1.1">
<g id="surface20601964">
<path style=" stroke:none;fill-rule:nonzero;fill:rgb(0.784314%,74.117649%,83.529413%);fill-opacity:1;" d="M 19.957031 2.277344 L 19.078125 2.710938 L 6.632812 8.816406 C 6.351562 8.933594 6.070312 9.050781 5.792969 9.164062 C 5.707031 9.515625 5.625 9.867188 5.539062 10.21875 L 2.460938 23.960938 C 2.394531 24.269531 2.328125 24.574219 2.261719 24.878906 C 2.457031 25.152344 2.652344 25.425781 2.847656 25.699219 L 11.460938 36.722656 C 11.671875 36.980469 11.882812 37.234375 12.09375 37.488281 C 12.410156 37.492188 12.726562 37.496094 13.046875 37.5 L 26.863281 37.5 C 27.1875 37.496094 27.511719 37.492188 27.835938 37.488281 C 28.039062 37.234375 28.246094 36.980469 28.449219 36.722656 L 37.0625 25.699219 C 37.265625 25.441406 37.464844 25.1875 37.667969 24.933594 C 37.597656 24.609375 37.523438 24.285156 37.453125 23.960938 L 34.375 10.21875 C 34.308594 9.898438 34.246094 9.574219 34.179688 9.25 L 33.277344 8.820312 L 20.835938 2.710938 Z M 19.953125 6.769531 C 20.292969 6.769531 20.617188 6.96875 20.761719 7.308594 C 20.859375 7.542969 20.851562 7.796875 20.761719 8.011719 C 20.578125 8.453125 20.511719 8.898438 20.464844 9.339844 C 20.449219 9.566406 20.441406 9.789062 20.449219 10.007812 C 20.425781 10.230469 20.535156 10.449219 20.699219 10.671875 C 20.867188 10.894531 20.882812 11.113281 20.90625 11.335938 C 23.179688 11.558594 25.222656 12.582031 26.753906 14.136719 C 26.9375 14.015625 27.117188 13.882812 27.398438 13.875 C 27.664062 13.859375 27.902344 13.8125 28.054688 13.648438 C 28.226562 13.507812 28.386719 13.359375 28.546875 13.203125 C 28.855469 12.890625 29.148438 12.554688 29.367188 12.132812 C 29.585938 11.6875 30.117188 11.515625 30.542969 11.746094 C 30.980469 11.96875 31.148438 12.507812 30.921875 12.941406 C 30.808594 13.171875 30.617188 13.328125 30.390625 13.394531 C 29.9375 13.523438 29.5625 13.761719 29.199219 14.007812 C 29.023438 14.136719 28.84375 14.269531 28.683594 14.417969 C 28.5 14.539062 28.402344 14.769531 28.328125 15.03125 C 28.273438 15.308594 28.121094 15.464844 27.96875 15.628906 C 29.015625 17.191406 29.617188 19.085938 29.617188 21.117188 C 29.617188 21.425781 29.601562 21.738281 29.578125 22.042969 L 29.585938 22.042969 C 29.796875 22.105469 30.003906 22.160156 30.191406 22.382812 C 30.375 22.578125 30.570312 22.726562 30.785156 22.746094 C 31.003906 22.792969 31.214844 22.824219 31.429688 22.847656 C 31.875 22.890625 32.308594 22.90625 32.777344 22.800781 C 33.25 22.695312 33.71875 22.996094 33.820312 23.480469 C 33.921875 23.953125 33.625 24.429688 33.148438 24.535156 C 32.90625 24.59375 32.667969 24.535156 32.472656 24.410156 C 32.078125 24.140625 31.660156 23.996094 31.242188 23.871094 C 31.035156 23.816406 30.816406 23.765625 30.605469 23.734375 C 30.398438 23.667969 30.15625 23.734375 29.914062 23.847656 C 29.671875 23.988281 29.457031 23.964844 29.230469 23.949219 L 29.207031 23.949219 C 28.515625 26.28125 26.992188 28.253906 24.980469 29.507812 L 24.980469 29.515625 C 25.046875 29.730469 25.117188 29.9375 25.054688 30.214844 C 24.996094 30.484375 24.988281 30.730469 25.101562 30.925781 C 25.1875 31.121094 25.285156 31.328125 25.390625 31.515625 C 25.609375 31.902344 25.851562 32.285156 26.207031 32.605469 C 26.558594 32.941406 26.585938 33.5 26.261719 33.867188 C 25.933594 34.226562 25.382812 34.25 25.023438 33.921875 C 24.835938 33.75 24.742188 33.523438 24.742188 33.285156 C 24.726562 32.800781 24.601562 32.375 24.457031 31.949219 C 24.386719 31.746094 24.304688 31.539062 24.207031 31.335938 C 24.136719 31.121094 23.945312 30.976562 23.710938 30.835938 C 23.484375 30.714844 23.371094 30.539062 23.257812 30.351562 C 22.230469 30.738281 21.117188 30.941406 19.957031 30.941406 C 18.816406 30.941406 17.71875 30.738281 16.703125 30.367188 C 16.609375 30.546875 16.496094 30.710938 16.269531 30.835938 C 16.035156 30.964844 15.84375 31.121094 15.769531 31.335938 C 15.675781 31.53125 15.585938 31.734375 15.511719 31.941406 C 15.367188 32.367188 15.238281 32.792969 15.230469 33.277344 C 15.214844 33.769531 14.804688 34.152344 14.320312 34.136719 C 13.839844 34.121094 13.460938 33.710938 13.476562 33.21875 C 13.484375 32.964844 13.597656 32.742188 13.765625 32.589844 C 14.121094 32.261719 14.363281 31.882812 14.589844 31.507812 C 14.695312 31.308594 14.789062 31.113281 14.878906 30.910156 C 14.992188 30.722656 14.984375 30.46875 14.933594 30.199219 C 14.878906 29.945312 14.933594 29.738281 15 29.550781 C 12.980469 28.316406 11.433594 26.347656 10.726562 24.015625 C 10.539062 24.03125 10.363281 24.03125 10.152344 23.921875 C 9.902344 23.816406 9.671875 23.75 9.460938 23.824219 C 9.242188 23.867188 9.035156 23.925781 8.824219 23.988281 C 8.40625 24.128906 7.996094 24.285156 7.609375 24.5625 C 7.214844 24.847656 6.664062 24.75 6.382812 24.351562 C 6.109375 23.949219 6.199219 23.390625 6.59375 23.113281 C 6.796875 22.964844 7.046875 22.917969 7.269531 22.960938 C 7.730469 23.058594 8.171875 23.023438 8.605469 22.964844 C 8.824219 22.941406 9.042969 22.902344 9.25 22.84375 C 9.46875 22.828125 9.660156 22.664062 9.835938 22.460938 C 9.988281 22.28125 10.167969 22.207031 10.34375 22.140625 C 10.3125 21.804688 10.296875 21.460938 10.296875 21.117188 C 10.296875 19.019531 10.941406 17.078125 12.042969 15.480469 C 11.898438 15.332031 11.761719 15.1875 11.707031 14.925781 C 11.632812 14.660156 11.539062 14.429688 11.351562 14.308594 C 11.183594 14.160156 11.015625 14.03125 10.835938 13.910156 C 10.46875 13.664062 10.089844 13.433594 9.636719 13.296875 C 9.171875 13.164062 8.894531 12.664062 9.03125 12.199219 C 9.167969 11.722656 9.65625 11.453125 10.121094 11.585938 C 10.355469 11.660156 10.546875 11.820312 10.652344 12.027344 C 10.871094 12.453125 11.167969 12.785156 11.480469 13.097656 C 11.632812 13.253906 11.804688 13.402344 11.972656 13.53125 C 12.125 13.695312 12.367188 13.746094 12.632812 13.761719 C 12.914062 13.769531 13.089844 13.894531 13.277344 14.015625 L 13.285156 14.023438 C 14.796875 12.535156 16.792969 11.550781 19.007812 11.339844 C 19.03125 11.117188 19.046875 10.894531 19.214844 10.675781 C 19.378906 10.453125 19.488281 10.230469 19.464844 10.011719 C 19.472656 9.789062 19.46875 9.566406 19.449219 9.339844 C 19.402344 8.894531 19.335938 8.453125 19.152344 8.011719 C 18.960938 7.5625 19.167969 7.035156 19.613281 6.839844 C 19.722656 6.792969 19.835938 6.769531 19.949219 6.769531 Z M 18.796875 13.011719 C 17.242188 13.230469 15.835938 13.914062 14.707031 14.910156 L 14.957031 15.066406 C 15.703125 15.539062 16.429688 16.042969 17.152344 16.539062 C 17.570312 16.808594 17.96875 17.113281 18.363281 17.398438 C 18.394531 16.933594 18.433594 16.460938 18.480469 15.992188 C 18.5625 15.109375 18.644531 14.214844 18.757812 13.328125 Z M 21.117188 13.011719 L 21.113281 13.011719 L 21.15625 13.328125 L 21.15625 13.332031 C 21.265625 14.21875 21.347656 15.109375 21.429688 15.992188 C 21.460938 16.347656 21.492188 16.691406 21.515625 17.042969 C 21.515625 17.046875 21.519531 17.050781 21.519531 17.054688 C 21.53125 17.210938 21.539062 17.367188 21.550781 17.523438 C 21.660156 17.480469 21.832031 17.40625 22.023438 17.308594 C 22.03125 17.300781 22.039062 17.304688 22.046875 17.296875 C 22.0625 17.285156 22.078125 17.277344 22.09375 17.265625 C 22.523438 17.023438 22.800781 16.753906 22.894531 16.6875 C 23.617188 16.191406 24.335938 15.691406 25.074219 15.207031 L 25.074219 15.203125 L 25.347656 15.035156 C 25.0625 14.769531 24.753906 14.523438 24.429688 14.300781 C 24.105469 14.082031 23.761719 13.882812 23.40625 13.710938 C 23.050781 13.539062 22.679688 13.390625 22.296875 13.273438 C 21.914062 13.15625 21.519531 13.066406 21.117188 13.011719 Z M 13.175781 16.699219 C 12.976562 17.015625 12.792969 17.347656 12.636719 17.691406 L 12.636719 17.695312 C 12.480469 18.039062 12.347656 18.398438 12.238281 18.769531 L 12.238281 18.773438 C 12.128906 19.144531 12.046875 19.523438 11.988281 19.914062 C 11.933594 20.304688 11.90625 20.707031 11.90625 21.113281 C 11.90625 21.269531 11.910156 21.414062 11.910156 21.5625 L 11.910156 21.566406 L 12.289062 21.433594 C 13.117188 21.128906 13.957031 20.867188 14.785156 20.589844 C 15.183594 20.460938 15.578125 20.339844 15.96875 20.21875 C 16.121094 20.148438 16.269531 20.082031 16.421875 20.011719 C 16.3125 19.890625 16.207031 19.765625 16.097656 19.644531 C 15.824219 19.390625 15.558594 19.136719 15.292969 18.867188 C 14.664062 18.234375 14.046875 17.617188 13.433594 16.96875 Z M 26.832031 16.851562 L 26.726562 16.964844 L 26.609375 17.089844 C 26.007812 17.746094 25.386719 18.375 24.769531 19.007812 C 24.375 19.417969 23.949219 19.808594 23.539062 20.210938 C 24.085938 20.347656 24.632812 20.496094 25.179688 20.660156 C 26.027344 20.90625 26.863281 21.144531 27.699219 21.421875 L 27.996094 21.519531 C 28.003906 21.390625 28.003906 21.25 28.003906 21.109375 C 28.003906 20.71875 27.980469 20.335938 27.925781 19.957031 C 27.773438 18.832031 27.390625 17.78125 26.832031 16.851562 Z M 20.496094 19.4375 L 19.03125 19.449219 L 18.128906 20.609375 L 18.472656 22.035156 L 19.800781 22.65625 L 21.117188 22.003906 L 21.425781 20.570312 Z M 17.023438 23.363281 C 16.914062 23.363281 16.75 23.367188 16.550781 23.378906 C 16.171875 23.425781 15.800781 23.488281 15.421875 23.527344 C 14.542969 23.632812 13.683594 23.742188 12.804688 23.824219 L 12.371094 23.863281 C 12.515625 24.28125 12.699219 24.683594 12.90625 25.070312 C 13.117188 25.453125 13.351562 25.816406 13.617188 26.160156 C 13.882812 26.503906 14.171875 26.824219 14.488281 27.117188 C 14.800781 27.414062 15.140625 27.6875 15.496094 27.925781 L 15.609375 27.582031 C 15.882812 26.730469 16.171875 25.894531 16.46875 25.050781 C 16.605469 24.640625 16.75 24.238281 16.90625 23.832031 C 16.960938 23.632812 16.996094 23.46875 17.023438 23.363281 Z M 22.957031 23.429688 C 23.003906 23.542969 23.074219 23.722656 23.160156 23.945312 C 23.296875 24.3125 23.425781 24.683594 23.554688 25.058594 C 23.835938 25.894531 24.125 26.738281 24.390625 27.589844 L 24.480469 27.886719 C 24.832031 27.640625 25.160156 27.371094 25.46875 27.074219 C 25.777344 26.78125 26.0625 26.460938 26.320312 26.121094 C 26.578125 25.78125 26.8125 25.417969 27.015625 25.039062 C 27.21875 24.660156 27.394531 24.261719 27.539062 23.847656 L 27.257812 23.832031 C 26.378906 23.773438 25.507812 23.691406 24.632812 23.609375 C 24.253906 23.578125 23.882812 23.539062 23.503906 23.496094 C 23.273438 23.46875 23.085938 23.445312 22.957031 23.429688 Z M 19.964844 24.742188 C 19.902344 24.867188 19.839844 25 19.78125 25.144531 C 19.761719 25.191406 19.742188 25.238281 19.726562 25.285156 C 19.726562 25.285156 19.722656 25.285156 19.722656 25.289062 C 19.535156 25.640625 19.34375 25.984375 19.144531 26.320312 C 18.699219 27.089844 18.257812 27.863281 17.789062 28.617188 L 17.589844 28.941406 C 17.964844 29.0625 18.351562 29.152344 18.746094 29.210938 C 19.140625 29.273438 19.546875 29.300781 19.957031 29.300781 C 20.378906 29.300781 20.796875 29.269531 21.203125 29.203125 C 21.609375 29.140625 22.007812 29.046875 22.386719 28.917969 L 22.203125 28.605469 C 21.734375 27.851562 21.300781 27.074219 20.863281 26.304688 C 20.671875 25.96875 20.484375 25.632812 20.308594 25.289062 C 20.195312 25.105469 20.082031 24.925781 19.964844 24.742188 Z M 19.964844 24.742188 "/>
</g>
</svg>
