<?xml version="1.0" encoding="UTF-8"?>
<svg xmlns="http://www.w3.org/2000/svg" xmlns:xlink="http://www.w3.org/1999/xlink" width="40pt" height="40pt" viewBox="0 0 40 40" version="1.1">
<g id="surface20135639">
<path style=" stroke:none;fill-rule:nonzero;fill:rgb(0.784314%,74.117649%,83.529413%);fill-opacity:1;" d="M 17.5 36.875 C 17.246094 36.875 17.015625 36.722656 16.917969 36.480469 C 15.675781 33.34375 13.359375 27.5 11.640625 27.5 C 10.835938 27.5 10.042969 28.015625 10.035156 28.019531 C 9.816406 28.164062 9.535156 28.160156 9.324219 28.007812 L 1.511719 22.382812 C 1.328125 22.25 1.226562 22.027344 1.253906 21.800781 C 1.28125 21.574219 1.425781 21.382812 1.636719 21.296875 L 11.929688 17.074219 C 12.386719 16.394531 14.171875 13.910156 16.105469 13.167969 C 16.394531 13.054688 16.640625 12.960938 16.847656 12.886719 C 17.890625 12.492188 17.890625 12.492188 18.691406 11.742188 L 18.871094 11.574219 C 19.957031 10.554688 22.03125 7.355469 22.671875 6.3125 C 22.746094 6.191406 22.824219 6.058594 22.90625 5.921875 C 23.605469 4.738281 24.5625 3.125 26.015625 3.125 C 27.683594 3.125 28.570312 4.84375 29.558594 7.09375 C 30.464844 9.160156 32.882812 16.003906 33.875 18.941406 C 36.253906 26.007812 38.660156 30.925781 38.6875 30.972656 C 38.808594 31.222656 38.753906 31.523438 38.546875 31.710938 C 38.34375 31.898438 38.042969 31.929688 37.804688 31.785156 C 37.753906 31.757812 36.542969 31.023438 34.558594 29.035156 C 33.085938 27.5625 31.886719 26.875 30.78125 26.875 C 28.839844 26.875 27.464844 28.421875 25.726562 30.375 L 25.625 30.492188 C 25.417969 30.726562 25.191406 30.992188 24.941406 31.28125 C 23.21875 33.300781 20.613281 36.351562 17.605469 36.867188 C 17.570312 36.871094 17.535156 36.875 17.5 36.875 Z M 11.640625 26.25 C 13.949219 26.25 15.773438 30.234375 17.882812 35.523438 C 20.261719 34.835938 22.488281 32.230469 23.992188 30.46875 C 24.246094 30.171875 24.480469 29.898438 24.6875 29.664062 L 24.792969 29.546875 C 26.664062 27.441406 28.277344 25.625 30.78125 25.625 C 32.675781 25.625 34.265625 26.976562 35.441406 28.152344 C 35.816406 28.527344 36.160156 28.851562 36.472656 29.136719 C 35.53125 26.988281 34.101562 23.535156 32.6875 19.339844 C 31.667969 16.308594 29.265625 9.546875 28.414062 7.59375 C 27.496094 5.507812 26.84375 4.375 26.015625 4.375 C 25.273438 4.375 24.464844 5.742188 23.980469 6.558594 C 23.894531 6.703125 23.8125 6.84375 23.734375 6.96875 C 23.710938 7.011719 21.160156 11.140625 19.722656 12.488281 L 19.546875 12.652344 C 18.59375 13.550781 18.53125 13.589844 17.285156 14.054688 C 17.082031 14.132812 16.839844 14.222656 16.550781 14.332031 C 15.042969 14.914062 13.382812 17.117188 12.871094 17.914062 C 12.800781 18.023438 12.699219 18.109375 12.582031 18.15625 L 3.152344 22.027344 L 9.726562 26.757812 C 10.152344 26.542969 10.867188 26.25 11.640625 26.25 Z M 11.640625 26.25 "/>
<path style=" stroke:none;fill-rule:nonzero;fill:rgb(0.784314%,74.117649%,83.529413%);fill-opacity:1;" d="M 9.953125 28.066406 L 9.421875 26.933594 C 9.460938 26.917969 13.289062 25.0625 16.273438 20.441406 C 19.105469 16.054688 20.503906 12.625 21.253906 10.785156 C 21.445312 10.316406 21.589844 9.960938 21.703125 9.726562 C 21.976562 9.160156 22.242188 8.472656 22.523438 7.75 C 23.40625 5.476562 24.316406 3.125 26.015625 3.125 L 26.015625 4.375 C 25.171875 4.375 24.316406 6.585938 23.691406 8.199219 C 23.398438 8.949219 23.125 9.65625 22.828125 10.273438 C 22.722656 10.488281 22.589844 10.820312 22.410156 11.257812 C 21.644531 13.136719 20.21875 16.632812 17.324219 21.121094 C 14.136719 26.058594 10.125 27.984375 9.953125 28.066406 Z M 9.953125 28.066406 "/>
<path style=" stroke:none;fill-rule:nonzero;fill:rgb(0.784314%,74.117649%,83.529413%);fill-opacity:1;" d="M 16.34375 21.359375 L 11.96875 18.078125 L 12.71875 17.078125 L 17.09375 20.359375 Z M 16.34375 21.359375 "/>
<path style=" stroke:none;fill-rule:nonzero;fill:rgb(29.019609%,90.980393%,99.215686%);fill-opacity:1;" d="M 23.859375 28.714844 C 25.808594 26.523438 27.652344 24.449219 30.625 24.375 C 30.625 24.375 28.515625 15.078125 26.71875 7.421875 C 26.355469 5.867188 26.207031 5.625 26.054688 5.625 C 25.953125 5.625 25.832031 5.851562 25.734375 6.378906 C 25.214844 9.1875 22.757812 19.640625 20.78125 24.6875 C 20.027344 26.617188 18.675781 27.75 17.5 28.28125 C 16.960938 28.523438 16.1875 28.75 16.1875 28.75 C 17 30.175781 17.773438 31.925781 18.566406 33.875 C 20.246094 32.929688 21.890625 31.007812 23.042969 29.65625 C 23.300781 29.355469 23.539062 29.074219 23.753906 28.832031 Z M 23.859375 28.714844 "/>
</g>
</svg>
