<?xml version="1.0" encoding="UTF-8"?>
<svg xmlns="http://www.w3.org/2000/svg" xmlns:xlink="http://www.w3.org/1999/xlink" width="40pt" height="40pt" viewBox="0 0 40 40" version="1.1">
<g id="surface20636160">
<path style=" stroke:none;fill-rule:nonzero;fill:rgb(0.784314%,74.117649%,83.529413%);fill-opacity:1;" d="M 35.265625 20.164062 L 37.523438 16.34375 C 37.613281 16.152344 37.625 15.933594 37.554688 15.738281 L 33.085938 2.9375 C 32.949219 2.546875 32.539062 2.324219 32.144531 2.421875 L 19.007812 5.621094 C 18.757812 5.683594 18.554688 5.863281 18.457031 6.101562 L 17.058594 9.601562 L 12.800781 9.601562 C 12.578125 9.601562 12.363281 9.695312 12.210938 9.855469 L 2.613281 20.257812 C 2.316406 20.578125 2.332031 21.078125 2.648438 21.378906 L 12.714844 30.976562 C 12.863281 31.121094 13.0625 31.199219 13.265625 31.199219 L 17.855469 31.199219 L 19.257812 34.695312 C 19.359375 34.957031 19.589844 35.140625 19.863281 35.1875 L 33.832031 37.585938 C 33.875 37.597656 33.921875 37.601562 33.964844 37.601562 C 34.335938 37.601562 34.664062 37.34375 34.746094 36.972656 L 37.582031 23.988281 C 37.625 23.789062 37.589844 23.578125 37.480469 23.398438 Z M 17.058594 9.601562 L 28.335938 7.535156 L 22.398438 19.199219 L 8.933594 19.199219 Z M 17.859375 31.199219 L 8.933594 22.398438 L 22.398438 22.398438 L 29.398438 32.933594 Z M 32.308594 31.117188 L 25.601562 20.800781 L 31.464844 9.132812 L 35.265625 20.167969 Z M 32.308594 31.117188 "/>
</g>
</svg>
