<?xml version="1.0" encoding="UTF-8"?>
<svg xmlns="http://www.w3.org/2000/svg" xmlns:xlink="http://www.w3.org/1999/xlink" width="40pt" height="40pt" viewBox="0 0 40 40" version="1.1">
<g id="surface20132439">
<path style=" stroke:none;fill-rule:nonzero;fill:rgb(0.784314%,74.117649%,83.529413%);fill-opacity:1;" d="M 20 1.601562 C 14.398438 1.601562 11.925781 4.414062 11.925781 4.414062 C 11.472656 4.15625 10.960938 4 10.398438 4 C 8.632812 4 7.199219 5.433594 7.199219 7.199219 C 7.199219 8.691406 8.222656 9.933594 9.601562 10.289062 L 9.601562 18.304688 L 6.75 21.152344 C 6.28125 21.621094 6.28125 22.378906 6.75 22.847656 C 6.984375 23.082031 7.292969 23.199219 7.601562 23.199219 C 7.90625 23.199219 8.214844 23.082031 8.449219 22.847656 L 9.523438 21.773438 C 9.320312 23.914062 8.800781 24.921875 8.800781 28.800781 C 8.800781 30.824219 9.777344 32.992188 11.632812 34.671875 L 9.953125 36.351562 C 9.484375 36.820312 9.484375 37.578125 9.953125 38.046875 C 10.1875 38.28125 10.492188 38.398438 10.800781 38.398438 C 11.105469 38.398438 11.414062 38.28125 11.648438 38.046875 L 13.625 36.074219 C 15.332031 37.007812 17.460938 37.601562 20 37.601562 C 22.539062 37.601562 24.667969 37.007812 26.375 36.074219 L 28.351562 38.046875 C 28.585938 38.28125 28.894531 38.398438 29.199219 38.398438 C 29.507812 38.398438 29.8125 38.28125 30.046875 38.046875 C 30.515625 37.578125 30.515625 36.820312 30.046875 36.351562 L 28.367188 34.671875 C 30.222656 32.992188 31.199219 30.824219 31.199219 28.800781 C 31.199219 24.921875 30.679688 23.917969 30.476562 21.773438 L 31.550781 22.847656 C 31.785156 23.082031 32.09375 23.199219 32.398438 23.199219 C 32.707031 23.199219 33.015625 23.082031 33.25 22.847656 C 33.714844 22.378906 33.714844 21.621094 33.25 21.152344 L 30.398438 18.304688 L 30.398438 10.289062 C 31.777344 9.933594 32.800781 8.691406 32.800781 7.199219 C 32.800781 5.433594 31.367188 4 29.601562 4 C 29.039062 4 28.527344 4.15625 28.074219 4.414062 C 28.074219 4.414062 25.601562 1.601562 20 1.601562 Z M 10.398438 6.398438 C 10.640625 6.398438 10.839844 6.515625 10.984375 6.679688 C 10.738281 7.089844 10.53125 7.53125 10.386719 7.996094 C 9.949219 7.988281 9.601562 7.636719 9.601562 7.199219 C 9.601562 6.757812 9.957031 6.398438 10.398438 6.398438 Z M 29.601562 6.398438 C 30.042969 6.398438 30.398438 6.757812 30.398438 7.199219 C 30.398438 7.636719 30.050781 7.988281 29.613281 7.996094 C 29.46875 7.53125 29.261719 7.089844 29.015625 6.679688 C 29.160156 6.515625 29.359375 6.398438 29.601562 6.398438 Z M 15.601562 7.203125 C 17.148438 7.203125 18.398438 8.457031 18.398438 10 C 18.398438 11.546875 17.144531 12.800781 15.597656 12.800781 C 14.136719 12.800781 12.949219 11.671875 12.824219 10.242188 C 12.9375 10.789062 13.421875 11.199219 14 11.199219 C 14.664062 11.199219 15.199219 10.664062 15.199219 10 C 15.199219 9.335938 14.664062 8.800781 14 8.800781 C 13.421875 8.800781 12.9375 9.210938 12.824219 9.757812 C 12.949219 8.324219 14.136719 7.199219 15.601562 7.203125 Z M 24.398438 7.203125 C 25.945312 7.203125 27.199219 8.457031 27.199219 10 C 27.199219 11.546875 25.941406 12.800781 24.398438 12.800781 C 22.851562 12.800781 21.597656 11.542969 21.597656 10 C 21.597656 8.453125 22.855469 7.199219 24.398438 7.203125 Z M 22.800781 8.800781 C 22.136719 8.800781 21.601562 9.335938 21.601562 10 C 21.601562 10.664062 22.136719 11.199219 22.800781 11.199219 C 23.460938 11.199219 24 10.664062 24 10 C 24 9.335938 23.460938 8.800781 22.800781 8.800781 Z M 20 12.800781 C 20.882812 12.800781 21.601562 13.160156 21.601562 13.601562 C 21.601562 14.042969 20.882812 14.398438 20 14.398438 C 19.117188 14.398438 18.398438 14.042969 18.398438 13.601562 C 18.398438 13.160156 19.117188 12.800781 20 12.800781 Z M 22.804688 14.792969 C 23.046875 15.160156 23.199219 15.578125 23.199219 16 C 23.199219 16.398438 23.199219 17.601562 20 17.601562 C 16.800781 17.601562 16.800781 16.398438 16.800781 16 C 16.800781 15.578125 16.953125 15.164062 17.195312 14.796875 C 17.722656 15.53125 18.738281 16 20 16 C 21.261719 16 22.28125 15.53125 22.804688 14.792969 Z M 18.398438 19.078125 C 18.867188 19.152344 19.390625 19.199219 20 19.199219 C 20.609375 19.199219 21.132812 19.152344 21.601562 19.078125 L 21.601562 20 C 21.601562 20.441406 21.242188 20.800781 20.800781 20.800781 C 20.359375 20.800781 20 20.441406 20 20 C 20 20.441406 19.640625 20.800781 19.199219 20.800781 C 18.757812 20.800781 18.398438 20.441406 18.398438 20 Z M 18.398438 19.078125 "/>
</g>
</svg>
