<?xml version="1.0" encoding="UTF-8"?>
<svg xmlns="http://www.w3.org/2000/svg" viewBox="0 0 40 40" width="40px" height="40px">
<g id="surface38764002">
<path style=" stroke:none;fill-rule:nonzero;fill:rgb(0.784314%,74.117649%,83.529413%);fill-opacity:1;" d="M 2.5 18.527344 L 6.546875 11.585938 C 6.585938 11.515625 6.632812 11.453125 6.691406 11.402344 L 13.953125 4.632812 C 14.03125 4.5625 14.125 4.507812 14.226562 4.46875 L 20.460938 2.179688 L 25.722656 5.851562 L 23.101562 14.179688 L 13.277344 23.304688 L 5.265625 25.101562 Z M 5.835938 26.617188 L 9.574219 37.304688 L 12.648438 25.085938 Z M 33.988281 2.300781 L 28.058594 5.59375 L 37.882812 12.726562 C 38.089844 11.808594 38.332031 10.554688 38.386719 9.492188 C 38.382812 9.476562 38.382812 9.460938 38.382812 9.445312 C 38.414062 7.929688 38.164062 6.339844 37.339844 4.96875 C 36.601562 3.734375 35.488281 2.832031 34.027344 2.261719 C 34.015625 2.273438 34.007812 2.289062 33.988281 2.300781 Z M 27.5 28.460938 L 23.4375 16.046875 L 15.191406 23.714844 Z M 24.914062 15.414062 L 28.949219 27.742188 C 32.105469 24.308594 35.335938 20.195312 37.179688 15.140625 Z M 36.304688 13.558594 L 27.082031 6.863281 L 24.894531 13.816406 Z M 4.609375 27.949219 L 1.867188 32.652344 C 2.804688 36.992188 6.054688 37.964844 8.195312 38.203125 Z M 3.902344 25.988281 L 1.601562 20.515625 L 1.601562 29.9375 Z M 31.9375 1.609375 C 31.925781 1.605469 31.914062 1.601562 31.898438 1.601562 L 22.429688 1.601562 L 26.648438 4.550781 Z M 14.300781 25.085938 L 11.023438 38.105469 C 17.6875 37.125 22.6875 33.542969 26.742188 29.882812 Z M 35.636719 36.519531 C 35.449219 36.519531 35.257812 36.453125 35.105469 36.320312 L 28.492188 30.445312 C 25.585938 33.144531 22.195312 35.882812 18.015625 37.730469 L 35.648438 36.535156 C 35.753906 36.527344 35.851562 36.496094 35.941406 36.457031 C 35.84375 36.496094 35.742188 36.519531 35.636719 36.519531 Z M 29.648438 29.335938 L 36.167969 35.121094 C 36.304688 35.242188 36.378906 35.402344 36.410156 35.570312 L 37.757812 17.929688 C 35.664062 22.460938 32.59375 26.183594 29.648438 29.335938 Z M 29.648438 29.335938 "/>
</g>
</svg>
